<svg width="66" height="20" viewBox="0 0 66 20" fill="none" xmlns="http://www.w3.org/2000/svg">
<rect width="66" height="20" rx="2" fill="#242424"/>
<path d="M23.9894 12.304V13H19.9254V7.4H23.8774V8.096H20.7254V9.816H23.5334V10.496H20.7254V12.304H23.9894ZM27.4631 12.752C27.3511 12.848 27.2124 12.9227 27.0471 12.976C26.8817 13.024 26.7111 13.048 26.5351 13.048C26.1084 13.048 25.7777 12.9333 25.5431 12.704C25.3084 12.4747 25.1911 12.1467 25.1911 11.72V9.392H24.4711V8.76H25.1911V7.832H25.9591V8.76H27.1751V9.392H25.9591V11.688C25.9591 11.9173 26.0151 12.0933 26.1271 12.216C26.2444 12.3387 26.4097 12.4 26.6231 12.4C26.8577 12.4 27.0577 12.3333 27.2231 12.2L27.4631 12.752ZM30.6556 8.72C31.1942 8.72 31.6209 8.87733 31.9356 9.192C32.2556 9.50133 32.4156 9.95733 32.4156 10.56V13H31.6476V10.648C31.6476 10.2373 31.5489 9.928 31.3516 9.72C31.1542 9.512 30.8716 9.408 30.5036 9.408C30.0876 9.408 29.7596 9.53067 29.5196 9.776C29.2796 10.016 29.1596 10.3627 29.1596 10.816V13H28.3916V7.064H29.1596V9.36C29.3196 9.15733 29.5276 9 29.7836 8.888C30.0449 8.776 30.3356 8.72 30.6556 8.72ZM37.6923 10.904C37.6923 10.9627 37.687 11.04 37.6763 11.136H34.2363C34.2843 11.5093 34.447 11.8107 34.7243 12.04C35.007 12.264 35.3563 12.376 35.7723 12.376C36.279 12.376 36.687 12.2053 36.9963 11.864L37.4203 12.36C37.2283 12.584 36.9883 12.7547 36.7003 12.872C36.4177 12.9893 36.1003 13.048 35.7483 13.048C35.3003 13.048 34.903 12.9573 34.5563 12.776C34.2097 12.5893 33.9403 12.3307 33.7483 12C33.5617 11.6693 33.4683 11.296 33.4683 10.88C33.4683 10.4693 33.559 10.0987 33.7403 9.768C33.927 9.43733 34.1803 9.18133 34.5003 9C34.8257 8.81333 35.191 8.72 35.5963 8.72C36.0017 8.72 36.3617 8.81333 36.6763 9C36.9963 9.18133 37.2443 9.43733 37.4203 9.768C37.6017 10.0987 37.6923 10.4773 37.6923 10.904ZM35.5963 9.368C35.2283 9.368 34.919 9.48 34.6683 9.704C34.423 9.928 34.279 10.2213 34.2363 10.584H36.9563C36.9137 10.2267 36.767 9.936 36.5163 9.712C36.271 9.48267 35.9643 9.368 35.5963 9.368ZM39.4948 9.472C39.6281 9.22667 39.8254 9.04 40.0868 8.912C40.3481 8.784 40.6654 8.72 41.0388 8.72V9.464C40.9961 9.45867 40.9374 9.456 40.8628 9.456C40.4468 9.456 40.1188 9.58133 39.8788 9.832C39.6441 10.0773 39.5268 10.4293 39.5268 10.888V13H38.7588V8.76H39.4948V9.472ZM45.7783 10.904C45.7783 10.9627 45.7729 11.04 45.7623 11.136H42.3223C42.3703 11.5093 42.5329 11.8107 42.8103 12.04C43.0929 12.264 43.4423 12.376 43.8583 12.376C44.3649 12.376 44.7729 12.2053 45.0823 11.864L45.5063 12.36C45.3143 12.584 45.0743 12.7547 44.7863 12.872C44.5036 12.9893 44.1863 13.048 43.8343 13.048C43.3863 13.048 42.9889 12.9573 42.6423 12.776C42.2956 12.5893 42.0263 12.3307 41.8343 12C41.6476 11.6693 41.5543 11.296 41.5543 10.88C41.5543 10.4693 41.6449 10.0987 41.8263 9.768C42.0129 9.43733 42.2663 9.18133 42.5863 9C42.9116 8.81333 43.2769 8.72 43.6823 8.72C44.0876 8.72 44.4476 8.81333 44.7623 9C45.0823 9.18133 45.3303 9.43733 45.5063 9.768C45.6876 10.0987 45.7783 10.4773 45.7783 10.904ZM43.6823 9.368C43.3143 9.368 43.0049 9.48 42.7543 9.704C42.5089 9.928 42.3649 10.2213 42.3223 10.584H45.0423C44.9996 10.2267 44.8529 9.936 44.6023 9.712C44.3569 9.48267 44.0503 9.368 43.6823 9.368ZM50.7967 8.76V13H50.0687V12.36C49.914 12.5787 49.7087 12.7493 49.4527 12.872C49.202 12.9893 48.9274 13.048 48.6287 13.048C48.0634 13.048 47.618 12.8933 47.2927 12.584C46.9674 12.2693 46.8047 11.808 46.8047 11.2V8.76H47.5727V11.112C47.5727 11.5227 47.6714 11.8347 47.8687 12.048C48.066 12.256 48.3487 12.36 48.7167 12.36C49.122 12.36 49.442 12.2373 49.6767 11.992C49.9114 11.7467 50.0287 11.4 50.0287 10.952V8.76H50.7967ZM57.5628 8.72C58.0961 8.72 58.5174 8.87467 58.8268 9.184C59.1414 9.49333 59.2988 9.952 59.2988 10.56V13H58.5308V10.648C58.5308 10.2373 58.4348 9.928 58.2428 9.72C58.0561 9.512 57.7868 9.408 57.4348 9.408C57.0454 9.408 56.7361 9.53067 56.5068 9.776C56.2774 10.016 56.1628 10.3627 56.1628 10.816V13H55.3948V10.648C55.3948 10.2373 55.2988 9.928 55.1068 9.72C54.9201 9.512 54.6508 9.408 54.2988 9.408C53.9094 9.408 53.6001 9.53067 53.3708 9.776C53.1414 10.016 53.0268 10.3627 53.0268 10.816V13H52.2588V8.76H52.9948V9.392C53.1494 9.17333 53.3521 9.008 53.6028 8.896C53.8534 8.77867 54.1388 8.72 54.4588 8.72C54.7894 8.72 55.0828 8.78667 55.3388 8.92C55.5948 9.05333 55.7921 9.248 55.9308 9.504C56.0908 9.25867 56.3121 9.06667 56.5948 8.928C56.8828 8.78933 57.2054 8.72 57.5628 8.72Z" fill="white"/>
<path d="M10.4474 2.61914L10.5464 2.95554V12.7161L10.4474 12.8149L5.91671 10.1368L10.4474 2.61914Z" fill="white"/>
<path d="M10.4475 2.61914L14.9783 10.1368L10.4475 12.8149V8.07738V2.61914Z" fill="#E8E8E8"/>
<path d="M10.4476 13.6728L10.5034 13.7409V17.2177L10.4476 17.3807L5.91419 10.9961L10.4476 13.6728Z" fill="white"/>
<path d="M10.4475 17.3807V13.6728L14.9783 10.9961L10.4475 17.3807Z" fill="#E8E8E8"/>
<path d="M10.4475 12.8151L5.91687 10.137L10.4475 8.07764V12.8151Z" fill="white"/>
<path d="M14.9783 10.137L10.4475 12.8151V8.07764L14.9783 10.137Z" fill="white"/>
</svg>
