<svg width="66" height="20" viewBox="0 0 66 20" fill="none" xmlns="http://www.w3.org/2000/svg">
<rect width="66" height="20" rx="2" fill="#8247E5"/>
<path d="M17.5975 7.91656C17.3749 7.78934 17.0886 7.78934 16.8342 7.91656L15.0531 8.96613L13.8445 9.63403L12.0952 10.6836C11.8726 10.8108 11.5863 10.8108 11.3319 10.6836L9.96428 9.85667C9.74165 9.72945 9.58262 9.47501 9.58262 9.18876V7.5985C9.58262 7.34406 9.70984 7.08962 9.96428 6.9306L11.3319 6.13547C11.5545 6.00825 11.8408 6.00825 12.0952 6.13547L13.4628 6.9624C13.6855 7.08962 13.8445 7.34406 13.8445 7.63031V8.67988L15.0531 7.98017V6.89879C15.0531 6.64435 14.9259 6.38991 14.6714 6.23088L12.127 4.73604C11.9044 4.60882 11.6181 4.60882 11.3637 4.73604L8.75569 6.26269C8.50124 6.38991 8.37402 6.64435 8.37402 6.89879V9.88848C8.37402 10.1429 8.50124 10.3974 8.75569 10.5564L11.3319 12.0512C11.5545 12.1784 11.8408 12.1784 12.0952 12.0512L13.8445 11.0335L15.0531 10.3337L16.8024 9.31598C17.025 9.18876 17.3113 9.18876 17.5657 9.31598L18.9333 10.1111C19.156 10.2383 19.315 10.4928 19.315 10.779V12.3693C19.315 12.6237 19.1878 12.8782 18.9333 13.0372L17.5975 13.8323C17.3749 13.9595 17.0886 13.9595 16.8342 13.8323L15.4666 13.0372C15.2439 12.91 15.0849 12.6555 15.0849 12.3693V11.3515L13.8763 12.0512V13.1008C13.8763 13.3552 14.0035 13.6097 14.258 13.7687L16.8342 15.2635C17.0568 15.3908 17.3431 15.3908 17.5975 15.2635L20.1737 13.7687C20.3964 13.6415 20.5554 13.387 20.5554 13.1008V10.0793C20.5554 9.82487 20.4282 9.57042 20.1737 9.4114L17.5975 7.91656Z" fill="white"/>
<path d="M26.6497 7.4C27.3751 7.4 27.9457 7.57333 28.3617 7.92C28.7777 8.26667 28.9857 8.744 28.9857 9.352C28.9857 9.96 28.7777 10.4373 28.3617 10.784C27.9457 11.1307 27.3751 11.304 26.6497 11.304H25.2657V13H24.4657V7.4H26.6497ZM26.6257 10.608C27.1324 10.608 27.5191 10.5013 27.7857 10.288C28.0524 10.0693 28.1857 9.75733 28.1857 9.352C28.1857 8.94667 28.0524 8.63733 27.7857 8.424C27.5191 8.20533 27.1324 8.096 26.6257 8.096H25.2657V10.608H26.6257ZM31.8494 13.048C31.4281 13.048 31.0494 12.9547 30.7134 12.768C30.3774 12.5813 30.1134 12.3253 29.9214 12C29.7348 11.6693 29.6414 11.296 29.6414 10.88C29.6414 10.464 29.7348 10.0933 29.9214 9.768C30.1134 9.43733 30.3774 9.18133 30.7134 9C31.0494 8.81333 31.4281 8.72 31.8494 8.72C32.2708 8.72 32.6468 8.81333 32.9774 9C33.3134 9.18133 33.5748 9.43733 33.7614 9.768C33.9534 10.0933 34.0494 10.464 34.0494 10.88C34.0494 11.296 33.9534 11.6693 33.7614 12C33.5748 12.3253 33.3134 12.5813 32.9774 12.768C32.6468 12.9547 32.2708 13.048 31.8494 13.048ZM31.8494 12.376C32.1214 12.376 32.3641 12.3147 32.5774 12.192C32.7961 12.064 32.9668 11.888 33.0894 11.664C33.2121 11.4347 33.2734 11.1733 33.2734 10.88C33.2734 10.5867 33.2121 10.328 33.0894 10.104C32.9668 9.87467 32.7961 9.69867 32.5774 9.576C32.3641 9.45333 32.1214 9.392 31.8494 9.392C31.5774 9.392 31.3321 9.45333 31.1134 9.576C30.9001 9.69867 30.7294 9.87467 30.6014 10.104C30.4788 10.328 30.4174 10.5867 30.4174 10.88C30.4174 11.1733 30.4788 11.4347 30.6014 11.664C30.7294 11.888 30.9001 12.064 31.1134 12.192C31.3321 12.3147 31.5774 12.376 31.8494 12.376ZM35.1115 7.064H35.8795V13H35.1115V7.064ZM41.0979 8.76L39.0419 13.424C38.8606 13.856 38.6473 14.16 38.4019 14.336C38.1619 14.512 37.8713 14.6 37.5299 14.6C37.3219 14.6 37.1193 14.5653 36.9219 14.496C36.7299 14.432 36.5699 14.336 36.4419 14.208L36.7699 13.632C36.9886 13.84 37.2419 13.944 37.5299 13.944C37.7166 13.944 37.8713 13.8933 37.9939 13.792C38.1219 13.696 38.2366 13.528 38.3379 13.288L38.4739 12.992L36.6019 8.76H37.4019L38.8819 12.152L40.3459 8.76H41.0979ZM45.7535 8.76V12.424C45.7535 13.1653 45.5695 13.712 45.2015 14.064C44.8335 14.4213 44.2841 14.6 43.5535 14.6C43.1535 14.6 42.7721 14.544 42.4095 14.432C42.0468 14.3253 41.7535 14.1707 41.5295 13.968L41.8975 13.376C42.0948 13.5467 42.3375 13.68 42.6255 13.776C42.9188 13.8773 43.2201 13.928 43.5295 13.928C44.0255 13.928 44.3908 13.8107 44.6255 13.576C44.8655 13.3413 44.9855 12.984 44.9855 12.504V12.168C44.8041 12.3867 44.5801 12.552 44.3135 12.664C44.0521 12.7707 43.7668 12.824 43.4575 12.824C43.0521 12.824 42.6841 12.7387 42.3535 12.568C42.0281 12.392 41.7721 12.1493 41.5855 11.84C41.3988 11.5253 41.3055 11.168 41.3055 10.768C41.3055 10.368 41.3988 10.0133 41.5855 9.704C41.7721 9.38933 42.0281 9.14667 42.3535 8.976C42.6841 8.80533 43.0521 8.72 43.4575 8.72C43.7775 8.72 44.0735 8.77867 44.3455 8.896C44.6228 9.01333 44.8495 9.18667 45.0255 9.416V8.76H45.7535ZM43.5455 12.152C43.8228 12.152 44.0708 12.0933 44.2895 11.976C44.5135 11.8587 44.6868 11.696 44.8095 11.488C44.9375 11.2747 45.0015 11.0347 45.0015 10.768C45.0015 10.3573 44.8655 10.0267 44.5935 9.776C44.3215 9.52 43.9721 9.392 43.5455 9.392C43.1135 9.392 42.7615 9.52 42.4895 9.776C42.2175 10.0267 42.0815 10.3573 42.0815 10.768C42.0815 11.0347 42.1428 11.2747 42.2655 11.488C42.3935 11.696 42.5668 11.8587 42.7855 11.976C43.0095 12.0933 43.2628 12.152 43.5455 12.152ZM49.0369 13.048C48.6156 13.048 48.2369 12.9547 47.9009 12.768C47.5649 12.5813 47.3009 12.3253 47.1089 12C46.9223 11.6693 46.8289 11.296 46.8289 10.88C46.8289 10.464 46.9223 10.0933 47.1089 9.768C47.3009 9.43733 47.5649 9.18133 47.9009 9C48.2369 8.81333 48.6156 8.72 49.0369 8.72C49.4583 8.72 49.8343 8.81333 50.1649 9C50.5009 9.18133 50.7623 9.43733 50.9489 9.768C51.1409 10.0933 51.2369 10.464 51.2369 10.88C51.2369 11.296 51.1409 11.6693 50.9489 12C50.7623 12.3253 50.5009 12.5813 50.1649 12.768C49.8343 12.9547 49.4583 13.048 49.0369 13.048ZM49.0369 12.376C49.3089 12.376 49.5516 12.3147 49.7649 12.192C49.9836 12.064 50.1543 11.888 50.2769 11.664C50.3996 11.4347 50.4609 11.1733 50.4609 10.88C50.4609 10.5867 50.3996 10.328 50.2769 10.104C50.1543 9.87467 49.9836 9.69867 49.7649 9.576C49.5516 9.45333 49.3089 9.392 49.0369 9.392C48.7649 9.392 48.5196 9.45333 48.3009 9.576C48.0876 9.69867 47.9169 9.87467 47.7889 10.104C47.6663 10.328 47.6049 10.5867 47.6049 10.88C47.6049 11.1733 47.6663 11.4347 47.7889 11.664C47.9169 11.888 48.0876 12.064 48.3009 12.192C48.5196 12.3147 48.7649 12.376 49.0369 12.376ZM54.563 8.72C55.1017 8.72 55.5284 8.87733 55.843 9.192C56.163 9.50133 56.323 9.95733 56.323 10.56V13H55.555V10.648C55.555 10.2373 55.4564 9.928 55.259 9.72C55.0617 9.512 54.779 9.408 54.411 9.408C53.995 9.408 53.667 9.53067 53.427 9.776C53.187 10.016 53.067 10.3627 53.067 10.816V13H52.299V8.76H53.035V9.4C53.1897 9.18133 53.3977 9.01333 53.659 8.896C53.9257 8.77867 54.227 8.72 54.563 8.72Z" fill="white"/>
</svg>
