<svg width="66" height="20" viewBox="0 0 66 20" fill="none" xmlns="http://www.w3.org/2000/svg">
<rect width="66" height="20" rx="2" fill="#2C7DF7"/>
<path d="M30.9103 8.09649H28.9903V7.40049H33.6223V8.09649H31.7023V13.0005H30.9103V8.09649ZM37.7761 10.9045C37.7761 10.9632 37.7707 11.0405 37.7601 11.1365H34.3201C34.3681 11.5098 34.5307 11.8112 34.8081 12.0405C35.0907 12.2645 35.4401 12.3765 35.8561 12.3765C36.3627 12.3765 36.7707 12.2058 37.0801 11.8645L37.5041 12.3605C37.3121 12.5845 37.0721 12.7552 36.7841 12.8725C36.5014 12.9898 36.1841 13.0485 35.8321 13.0485C35.3841 13.0485 34.9867 12.9578 34.6401 12.7765C34.2934 12.5898 34.0241 12.3312 33.8321 12.0005C33.6454 11.6698 33.5521 11.2965 33.5521 10.8805C33.5521 10.4698 33.6427 10.0992 33.8241 9.76849C34.0107 9.43782 34.2641 9.18182 34.5841 9.00049C34.9094 8.81382 35.2747 8.72049 35.6801 8.72049C36.0854 8.72049 36.4454 8.81382 36.7601 9.00049C37.0801 9.18182 37.3281 9.43782 37.5041 9.76849C37.6854 10.0992 37.7761 10.4778 37.7761 10.9045ZM35.6801 9.36849C35.3121 9.36849 35.0027 9.48049 34.7521 9.70449C34.5067 9.92849 34.3627 10.2218 34.3201 10.5845H37.0401C36.9974 10.2272 36.8507 9.93649 36.6001 9.71249C36.3547 9.48315 36.0481 9.36849 35.6801 9.36849ZM41.9474 12.3685V13.0005H38.3954V12.5045L40.8994 9.39249H38.4434V8.76049H41.8834V9.26449L39.3794 12.3685H41.9474ZM44.7288 13.0485C44.3075 13.0485 43.9288 12.9552 43.5928 12.7685C43.2568 12.5818 42.9928 12.3258 42.8008 12.0005C42.6141 11.6698 42.5208 11.2965 42.5208 10.8805C42.5208 10.4645 42.6141 10.0938 42.8008 9.76849C42.9928 9.43782 43.2568 9.18182 43.5928 9.00049C43.9288 8.81382 44.3075 8.72049 44.7288 8.72049C45.1501 8.72049 45.5261 8.81382 45.8568 9.00049C46.1928 9.18182 46.4541 9.43782 46.6408 9.76849C46.8328 10.0938 46.9288 10.4645 46.9288 10.8805C46.9288 11.2965 46.8328 11.6698 46.6408 12.0005C46.4541 12.3258 46.1928 12.5818 45.8568 12.7685C45.5261 12.9552 45.1501 13.0485 44.7288 13.0485ZM44.7288 12.3765C45.0008 12.3765 45.2435 12.3152 45.4568 12.1925C45.6755 12.0645 45.8461 11.8885 45.9688 11.6645C46.0915 11.4352 46.1528 11.1738 46.1528 10.8805C46.1528 10.5872 46.0915 10.3285 45.9688 10.1045C45.8461 9.87515 45.6755 9.69915 45.4568 9.57649C45.2435 9.45382 45.0008 9.39249 44.7288 9.39249C44.4568 9.39249 44.2115 9.45382 43.9928 9.57649C43.7795 9.69915 43.6088 9.87515 43.4808 10.1045C43.3581 10.3285 43.2968 10.5872 43.2968 10.8805C43.2968 11.1738 43.3581 11.4352 43.4808 11.6645C43.6088 11.8885 43.7795 12.0645 43.9928 12.1925C44.2115 12.3152 44.4568 12.3765 44.7288 12.3765ZM49.2069 13.0485C48.8603 13.0485 48.5269 13.0032 48.2069 12.9125C47.8869 12.8165 47.6363 12.6965 47.4549 12.5525L47.7749 11.9445C47.9616 12.0778 48.1883 12.1845 48.4549 12.2645C48.7216 12.3445 48.9909 12.3845 49.2629 12.3845C49.9349 12.3845 50.2709 12.1925 50.2709 11.8085C50.2709 11.6805 50.2256 11.5792 50.1349 11.5045C50.0443 11.4298 49.9296 11.3765 49.7909 11.3445C49.6576 11.3072 49.4656 11.2672 49.2149 11.2245C48.8736 11.1712 48.5936 11.1098 48.3749 11.0405C48.1616 10.9712 47.9776 10.8538 47.8229 10.6885C47.6683 10.5232 47.5909 10.2912 47.5909 9.99249C47.5909 9.60849 47.7509 9.30182 48.0709 9.07249C48.3909 8.83782 48.8203 8.72049 49.3589 8.72049C49.6416 8.72049 49.9243 8.75515 50.2069 8.82449C50.4896 8.89382 50.7216 8.98715 50.9029 9.10449L50.5749 9.71249C50.2283 9.48849 49.8203 9.37649 49.3509 9.37649C49.0256 9.37649 48.7776 9.42982 48.6069 9.53649C48.4363 9.64315 48.3509 9.78449 48.3509 9.96049C48.3509 10.0992 48.3989 10.2085 48.4949 10.2885C48.5909 10.3685 48.7083 10.4272 48.8469 10.4645C48.9909 10.5018 49.1909 10.5445 49.4469 10.5925C49.7883 10.6512 50.0629 10.7152 50.2709 10.7845C50.4843 10.8485 50.6656 10.9605 50.8149 11.1205C50.9643 11.2805 51.0389 11.5045 51.0389 11.7925C51.0389 12.1765 50.8736 12.4832 50.5429 12.7125C50.2176 12.9365 49.7723 13.0485 49.2069 13.0485Z" fill="white"/>
<path d="M20.4472 16.7456C19.4837 16.7456 18.7804 16.5137 18.3373 16.05C17.9269 15.6574 17.6888 15.1185 17.6749 14.5511C17.6699 14.3787 17.7099 14.208 17.791 14.0557C17.8665 13.9241 17.9757 13.8149 18.1074 13.7393C18.2604 13.663 18.429 13.6234 18.6 13.6234C18.771 13.6234 18.9397 13.663 19.0927 13.7393C19.2241 13.8146 19.3328 13.9239 19.4073 14.0557C19.4907 14.2072 19.5322 14.3782 19.5275 14.5511C19.5361 14.7575 19.4769 14.9611 19.3588 15.1307C19.2603 15.2692 19.1196 15.3721 18.9577 15.4239C19.116 15.6253 19.34 15.7648 19.5907 15.8181C19.8711 15.8995 20.1615 15.9413 20.4536 15.9424C20.8402 15.9458 21.2189 15.8327 21.5402 15.6178C21.8735 15.3826 22.1221 15.0463 22.249 14.6588C22.41 14.1976 22.4886 13.7118 22.4811 13.2234C22.4941 12.7143 22.4081 12.2074 22.2279 11.731C22.0924 11.35 21.8351 11.024 21.4958 10.8035C21.1804 10.6041 20.8143 10.4995 20.4411 10.5021C20.1159 10.5297 19.8023 10.636 19.5275 10.812L18.8501 11.1513V10.812L21.8946 6.73166H17.6749V10.9659C17.663 11.2714 17.7439 11.5734 17.907 11.8322C17.9859 11.945 18.0926 12.0354 18.2168 12.0949C18.341 12.1543 18.4785 12.1807 18.6159 12.1715C18.8698 12.1664 19.1153 12.08 19.3163 11.9249C19.5441 11.7581 19.7424 11.5543 19.9029 11.3221C19.9173 11.2813 19.9439 11.246 19.9791 11.2209C20.0074 11.1965 20.0435 11.1831 20.0809 11.183C20.1542 11.1897 20.2235 11.2192 20.2792 11.2673C20.3497 11.346 20.3881 11.4483 20.3868 11.5539C20.3786 11.6249 20.3659 11.6953 20.3488 11.7647C20.1989 12.1272 19.9476 12.4388 19.6251 12.6624C19.3255 12.8649 18.9717 12.9723 18.6099 12.9704C17.6964 12.9704 17.0635 12.7906 16.7112 12.4308C16.5302 12.232 16.3907 11.9991 16.3008 11.7457C16.211 11.4924 16.1726 11.2236 16.188 10.9553V6.73166H14.0417V5.94495H16.198V4.15116L15.7043 3.65762V3.25537H17.1368L17.6749 3.53364V5.94495L23.249 5.92801L23.804 6.48447L20.386 9.91579C20.5925 9.83283 20.81 9.78028 21.0316 9.75981C21.4702 9.779 21.8982 9.90104 22.2808 10.1161C22.724 10.3265 23.0974 10.6595 23.3569 11.0755C23.5894 11.4276 23.754 11.8201 23.8422 12.2327C23.9147 12.5581 23.9536 12.8901 23.9582 13.2235C23.9605 13.8597 23.8161 14.4879 23.5363 15.0594C23.2709 15.6128 22.8242 16.059 22.2703 16.3241C21.7033 16.6033 21.0793 16.7475 20.4472 16.7456V16.7456Z" fill="white"/>
</svg>
